<?xml version="1.0" standalone="no"?>
<!DOCTYPE svg PUBLIC "-//W3C//DTD SVG 20010904//EN"
 "http://www.w3.org/TR/2001/REC-SVG-20010904/DTD/svg10.dtd">
<svg version="1.0" xmlns="http://www.w3.org/2000/svg"
 width="512.000000pt" height="512.000000pt" viewBox="0 0 512.000000 512.000000"
 preserveAspectRatio="xMidYMid meet">
<metadata>
Created by potrace 1.11, written by Peter Selinger 2001-2013
</metadata>
<g transform="translate(0.000000,512.000000) scale(0.100000,-0.100000)"
fill="#000000" stroke="none">
<path d="M1283 4637 c-170 -168 -380 -375 -468 -462 -579 -567 -705 -698 -737
-763 -72 -145 -16 -298 127 -347 43 -15 92 -17 342 -17 263 0 292 -2 295 -16
2 -10 3 -237 2 -507 -1 -465 0 -491 18 -510 10 -11 35 -40 55 -63 46 -55 104
-95 168 -117 44 -15 102 -17 513 -18 452 0 462 -1 442 -19 -41 -38 -55 -79
-55 -163 1 -113 18 -140 211 -330 848 -836 1290 -1273 1303 -1288 8 -9 29 -17
46 -17 26 1 74 44 357 323 180 177 503 495 718 707 215 212 404 406 420 431
95 147 65 304 -73 377 l-52 27 -305 3 c-168 2 -307 6 -309 8 -3 2 -4 229 -4
504 l0 500 -26 32 c-58 71 -124 127 -178 154 l-58 29 -477 0 -477 0 19 20 c31
33 60 110 61 162 2 80 -39 162 -121 243 -51 49 -990 974 -1224 1205 -106 105
-200 196 -209 204 -15 12 -52 -22 -324 -292z m534 -967 l-142 -5 0 -613 0
-612 -102 0 -102 0 0 598 c0 328 0 605 0 615 -1 15 -13 17 -118 17 l-118 0
124 118 c68 64 153 145 189 178 l65 62 173 -177 172 -176 -141 -5z m1102 -669
c-21 -23 -48 -68 -60 -100 -21 -54 -21 -70 -22 -544 l0 -488 -328 2 c-305 1
-326 2 -310 18 44 44 75 97 90 154 15 54 17 125 15 527 0 256 1 468 3 472 2 3
149 6 327 5 l323 -2 -38 -44z m743 -530 c5 0 9 -277 10 -613 l3 -613 108 0
c59 1 107 -2 107 -6 0 -6 -74 -80 -170 -169 -25 -23 -78 -74 -119 -113 l-73
-71 -169 173 c-93 95 -169 176 -169 180 0 4 57 6 128 6 70 -1 132 0 138 2 7 3
10 190 9 596 0 326 1 601 3 612 3 19 10 21 95 19 51 -1 95 -2 99 -3z"/>
</g>
</svg>
